# xmcd
#
# Track frame offsets: 
#        300
#        11272
#        26005
#        40785
#        53730
#        68013
#        83584
#        101451
#        118434
#        137729
#        155887
#        177237
#        193215
#        215338
#        237938
#        252838
#        271780
#        290110
#        309795
#        329476
#
# Disc length: 4645 seconds
#
# Revision: 0
# Processed by: cddbd v1.5.2PL0 Copyright (c) Steve Scherf et al.
# Submitted via: ExactAudioCopy v0.99pb5
#
DISCID=1d122114
DTITLE=Bee Gees - I've Gotta Get A Message To You
DYEAR=2004
DGENRE=
TTITLE0=Bee Gees - Massachisetts
TTITLE1=Bee Gees - World
TTITLE2=Bee Gees - Words
TTITLE3=Bee Gees - Ive Gotta Get A Message To You
TTITLE4=Bee Gees - I Started A Joke
TTITLE5=Bee Gees - Don`t Forget To Remember
TTITLE6=Bee Gees - How Can You Mend A Broken Heart
TTITLE7=Bee Gees - Jive Talkin
TTITLE8=Bee Gees - You Should Be Dancing
TTITLE9=Bee Gees - How Deep Is Your Love
TTITLE10=Bee Gees - Stayin`alive
TTITLE11=Bee Gees - Night Fever
TTITLE12=Bee Gees - Too Much Heaven
TTITLE13=Bee Gees - Tragedy
TTITLE14=Bee Gees - More Than A Woman
TTITLE15=Bee Gees - Love You Inside Out
TTITLE16=Bee Gees - You Win Again
TTITLE17=Bee Gees - Man In The Middle
TTITLE18=Bee Gees - Islands In The Stream
TTITLE19=Bee Gees - Immortality [Oryginal Demo Version]-Specjalnie Dla
TTITLE19=Agnieszki-Kc
EXTD=
EXTT0=
EXTT1=
EXTT2=
EXTT3=
EXTT4=
EXTT5=
EXTT6=
EXTT7=
EXTT8=
EXTT9=
EXTT10=
EXTT11=
EXTT12=
EXTT13=
EXTT14=
EXTT15=
EXTT16=
EXTT17=
EXTT18=
EXTT19=
PLAYORDER=
